<svg xmlns="http://www.w3.org/2000/svg" width="43.755" height="39.179" viewBox="0 0 43.755 39.179">
  <defs>
    <style>
      .cls-1 {
        fill: #df1f26;
      }
    </style>
  </defs>
  <path id="Icon_map-jewelry-store" data-name="Icon map-jewelry-store" class="cls-1" d="M46.253,18.348l-.013-.1a1.292,1.292,0,0,0-.129-.368L39.663,7.5S38.841,6.48,38.645,6.48H11.169L2.906,17.524l-.1.1-.013.048a1.811,1.811,0,0,0-.171.356l-.034.1A1.6,1.6,0,0,0,2.6,19.1l.039.111a1.715,1.715,0,0,0,.191.358L22.811,44.87l.041.058a1.729,1.729,0,0,0,.381.356l.116.072a2.057,2.057,0,0,0,.406.191l.113.038a1.963,1.963,0,0,0,1.084-.006l.135-.048a1.981,1.981,0,0,0,.395-.193l.09-.056a1.584,1.584,0,0,0,.345-.32l20-25.332a1.778,1.778,0,0,0,.336-.8l.015-.131.008-.1-.024-.244Zm-10.726-.674,2.847-5.152,2.845,5.152ZM33.82,20.727h6.755L29.316,34.989Zm-1.671-4.6-4.112-5.579h7.195Zm-13.172,4.6H29.823L24.4,37.9Zm1.076-3.053,4.346-5.9,4.346,5.9Zm-3.061-2.007-1.885-5.117h5.655ZM19.483,34.99,8.223,20.727h6.756ZM11.846,12.557l1.886,5.117H8.075l3.77-5.117Z" transform="translate(-2.522 -6.48)"/>
</svg>
