<svg xmlns="http://www.w3.org/2000/svg" width="31.777" height="44.522" viewBox="0 0 31.777 44.522">
  <defs>
    <style>
      .cls-1 {
        fill: #df1f26;
      }
    </style>
  </defs>
  <path id="Icon_awesome-euro-sign" data-name="Icon awesome-euro-sign" class="cls-1" d="M30.878,40.189a1.192,1.192,0,0,0-1.433-.931,20.879,20.879,0,0,1-4.514.538A12.794,12.794,0,0,1,12.859,31.3h11.3a1.193,1.193,0,0,0,1.164-.931l.633-2.818A1.192,1.192,0,0,0,24.791,26.1H11.45a21.454,21.454,0,0,1,.014-4.2H26.032a1.193,1.193,0,0,0,1.165-.938l.647-2.957a1.193,1.193,0,0,0-1.165-1.448H12.938A12.481,12.481,0,0,1,24.626,9.1a19.465,19.465,0,0,1,3.762.412,1.193,1.193,0,0,0,1.392-.857L30.971,4.25a1.192,1.192,0,0,0-.927-1.482,28.941,28.941,0,0,0-5.236-.517A21.238,21.238,0,0,0,4.479,16.561H1.193A1.193,1.193,0,0,0,0,17.753V20.71A1.193,1.193,0,0,0,1.193,21.9H3.336a29.5,29.5,0,0,0-.018,4.2H1.193A1.193,1.193,0,0,0,0,27.293v2.818A1.193,1.193,0,0,0,1.193,31.3H4.185A20.818,20.818,0,0,0,24.808,46.772,24.788,24.788,0,0,0,30.881,46a1.193,1.193,0,0,0,.873-1.387l-.876-4.421Z" transform="translate(0 -2.25)"/>
</svg>
