<svg id="Layer_1" data-name="Layer 1" xmlns="http://www.w3.org/2000/svg" viewBox="0 0 220 192"><defs><style>.cls-1{fill:#fff;fill-rule:evenodd;}</style></defs><title>white-icon</title><path class="cls-1" d="M191,89.88c-.54-2.49,0-4.81-.63-7.15-1.68-6.63-2.66-12.86-5.09-18.58-9.15-21.59-24.79-37.07-46.38-46.23-5-2.1-10.43-3.14-16-4.6l-3-.32c-4.43-1.07-10-1.06-15.41-1l-8.73.8C89,14.45,82.76,15.35,77.06,17.76,54.44,27.35,39,43.24,29.57,66.05c-1.95,4.71-2.8,10-4.13,15.25-.41,1.61-.1,2.94-.48,4.61-.21.91-.26,2.38-.48,3.33v2.7a21.72,21.72,0,0,0,0,7.15c.06,1.54.11,3.07.16,4.61.93,4,1.14,8.3,2.23,11.91,1.35,4.51,2.22,8.54,4,12.55,8.24,18.89,22.8,34.58,41.61,42.89a124.39,124.39,0,0,0,16.36,5.87c2.6.74,5.35.82,8,1.43l2.86.16c2.62.6,5.83.48,8.89.48h2.86l7.31-.64c5.55-1.32,10.94-1.82,15.88-3.65,23.09-8.56,40.27-23.92,49.88-45.91,2.18-5,3.49-10.4,5.08-16l1.11-6.67c.06-1,.11-2,.16-3A39.63,39.63,0,0,0,191,89.88ZM147.59,88c-.69,2.14-1.15,4.17-1.91,6-3.79,9.3-7.05,14.43-17.15,17.47-5.65,1.7-17.22,1.26-23-.16-2.37-.58-8.06-1.81-11.27-1.11-2.89.62-5.54.87-8,1.91-8.22,3.54-12.52,10.89-15.72,19.53-1.2,3.25-2.71,7.46-2.7,11.6.6-.86.57-2.29,1-3.34a38,38,0,0,1,2.86-6.51c4.58-7.52,10.54-12.72,20.33-15.09,6.53-1.58,12.79,1,17.32,2.54,3.33,1.12,6.91,1.41,10.64,2.23h2.7a27.36,27.36,0,0,0,9.69-1.43c1.19-.44,2.38-.62,3.18-1.43h.15c-.83,2.61-3.38,5.39-4.92,7.46a17.84,17.84,0,0,1-5.72,5.24,20.22,20.22,0,0,1-4.45,1.59,20.7,20.7,0,0,1-8.42-.31c-1.93-.51-3.65-.57-5.4-1.28-3.67-1.48-7-3-10.8-4.44-2.52-.94-6.66-1.86-10-1-7.62,2.06-11.92,7.19-15.57,13.19A42.13,42.13,0,0,0,67.85,146a9,9,0,0,1-.64,1.75V148h-.16c.36-5-1-12.29.32-17.64.89-3.73,1.49-7.37,2.86-10.64,5-11.87,13.35-19.77,26.37-23.67,4-1.21,11.8-1.44,16.36-.47,1.14.24,2.71,0,3.65.15A6.88,6.88,0,0,0,119,95.6h3.66c.9-.2,2.3-.28,3.17-.48,2-.46,3.68-.27,5.56-.79,5.58-1.56,13.89-4.5,16.68-8.58C148.35,86.34,147.78,87.38,147.59,88ZM161.41,46a46.87,46.87,0,0,1-1.12,9.05c-.76,3.21-.86,6-1.9,8.9-3.28,8.94-8.48,14.89-16.52,19.06-5,2.59-10.93,3.59-17.16,5.08l-8.89,1-8.1.16c-1.24.27-3.17-.15-4.61.16-2.47.54-5.12.46-7.46,1.11-14,3.92-22.09,12.44-26.53,25.9-1,2.87-1.34,6-2.07,9,0,.79-.1,1.59-.16,2.38-1.2,5.3-1.07,15.16,0,20.49h-.15c-.63-2.6-1.64-5.29-2.39-7.94-.82-2.92-.9-6-1.59-9l-.15-3.5a26.19,26.19,0,0,1-.16-4.92,54.91,54.91,0,0,1,1.9-15.73,81.51,81.51,0,0,1,2.54-8.42c6-14.32,16.88-25,32.09-30.18,3.35-1.13,7-1.53,10.64-2.38l2.86-.16,9.69-1.43c6.88-1.83,13.29-3.43,19.22-6,4.85-2.13,8.91-5.29,12.87-8.26a24.47,24.47,0,0,0,7.15-7.79C161.91,43.37,161.43,45,161.41,46Z"/></svg>