<svg id="Layer_1" data-name="Layer 1" xmlns="http://www.w3.org/2000/svg" viewBox="0 0 627.03 207.53"><defs><style>.cls-1{font-size:82.43px;font-family:Poppins-Bold, Poppins;font-weight:700;}.cls-1,.cls-2,.cls-3{fill:#fff;}.cls-2{font-size:45.69px;font-family:Poppins-Medium, Poppins;letter-spacing:0.07em;}.cls-3{fill-rule:evenodd;}</style></defs><title>white-logo</title><text class="cls-1" transform="translate(169.22 104.27)">NON STOP</text><text class="cls-2" transform="translate(169.22 149.99)">LOGISTICS</text><path class="cls-3" d="M148.38,90.58c-.34-1.56,0-3-.4-4.47-1-4.14-1.66-8-3.18-11.62a52.91,52.91,0,0,0-29-28.9,74.44,74.44,0,0,0-10-2.88l-1.89-.2a40.06,40.06,0,0,0-9.63-.59l-5.46.49c-4.14,1-8.06,1.57-11.62,3.08-14.15,6-23.81,15.93-29.7,30.19-1.21,2.95-1.74,6.24-2.58,9.54-.25,1-.06,1.84-.3,2.88-.13.57-.16,1.49-.3,2.09v1.68a13.68,13.68,0,0,0,0,4.47c0,1,.07,1.92.1,2.88.58,2.53.71,5.2,1.39,7.45a68.12,68.12,0,0,0,2.49,7.85c5.15,11.81,14.25,21.62,26,26.81A76.58,76.58,0,0,0,84.52,145c1.62.46,3.34.51,5,.89l1.79.1a27,27,0,0,0,5.56.3h1.79l4.57-.4c3.47-.82,6.84-1.14,9.93-2.28,14.44-5.36,25.18-15,31.19-28.7a78.13,78.13,0,0,0,3.17-10c.24-1.39.47-2.78.7-4.17,0-.63.07-1.26.1-1.88A24.81,24.81,0,0,0,148.38,90.58Zm-27.12-1.19c-.43,1.33-.71,2.61-1.19,3.77-2.37,5.82-4.4,9-10.72,10.93-3.53,1.06-10.77.79-14.4-.1-1.49-.36-5-1.13-7.06-.7a26.88,26.88,0,0,0-5,1.2c-5.14,2.21-7.83,6.81-9.83,12.21A21.43,21.43,0,0,0,71.41,124a9.49,9.49,0,0,0,.59-2.08,24,24,0,0,1,1.79-4.07,19.27,19.27,0,0,1,12.71-9.44c4.09-1,8,.65,10.83,1.59a65.46,65.46,0,0,0,6.65,1.39h1.69a17.14,17.14,0,0,0,6.06-.89,5.2,5.2,0,0,0,2-.9h.1c-.53,1.64-2.12,3.37-3.08,4.67a11.25,11.25,0,0,1-3.58,3.28,10.89,10.89,0,0,1-8,.79,26.51,26.51,0,0,1-3.38-.79c-2.3-.93-4.39-1.9-6.75-2.78a11.25,11.25,0,0,0-6.26-.6c-4.76,1.28-7.45,4.49-9.73,8.24a28.28,28.28,0,0,0-1.59,3.28,5.15,5.15,0,0,1-.4,1.09v.2h-.1c.23-3.1-.6-7.68.2-11a43.79,43.79,0,0,1,1.79-6.66A24.45,24.45,0,0,1,89.38,94.46a25.57,25.57,0,0,1,10.23-.3c.71.15,1.7,0,2.29.1a4.39,4.39,0,0,0,1.49-.1h2.28c.57-.13,1.44-.18,2-.3,1.27-.29,2.3-.17,3.47-.5,3.49-1,8.68-2.8,10.43-5.36C121.74,88.37,121.38,89,121.26,89.39Zm8.65-26.22a29.21,29.21,0,0,1-.7,5.66A50.28,50.28,0,0,1,128,74.39a20.48,20.48,0,0,1-10.33,11.92c-3.13,1.62-6.83,2.25-10.73,3.18l-5.56.6-5.06.1c-.78.16-2-.1-2.88.09-1.55.34-3.2.29-4.67.7C80,93.43,75,98.76,72.2,107.17c-.59,1.79-.83,3.76-1.29,5.66,0,.5-.06,1-.1,1.49a38.79,38.79,0,0,0,0,12.81h-.1c-.39-1.63-1-3.31-1.49-5-.51-1.83-.56-3.78-1-5.67,0-.72-.07-1.45-.1-2.18a17.11,17.11,0,0,1-.1-3.08,34.17,34.17,0,0,1,1.19-9.83,50.91,50.91,0,0,1,1.59-5.27A32.76,32.76,0,0,1,90.87,77.27c2.1-.7,4.37-1,6.66-1.49l1.79-.1,6.05-.89a82.2,82.2,0,0,0,12-3.77,41.19,41.19,0,0,0,8-5.17A15.4,15.4,0,0,0,129.91,61C130.22,61.51,129.92,62.53,129.91,63.17Z"/></svg>